<?xml version="1.0" standalone="no"?>
<!DOCTYPE svg PUBLIC "-//W3C//DTD SVG 20010904//EN"
 "http://www.w3.org/TR/2001/REC-SVG-20010904/DTD/svg10.dtd">
<svg version="1.0" xmlns="http://www.w3.org/2000/svg"
 width="459.000000pt" height="459.000000pt" viewBox="0 0 459.000000 459.000000"
 preserveAspectRatio="xMidYMid meet">
<metadata>
Created by potrace 1.14, written by Peter Selinger 2001-2017
</metadata>
<g transform="translate(0.000000,459.000000) scale(0.100000,-0.100000)"
fill="#000000" stroke="none">
<path d="M1850 4480 c-77 -12 -148 -40 -265 -105 -116 -65 -178 -92 -295 -130
-111 -35 -143 -56 -196 -127 -53 -72 -183 -329 -213 -418 -23 -71 -63 -262
-80 -380 -10 -66 -33 -565 -36 -770 -2 -98 11 -285 26 -380 6 -41 31 -131 55
-200 33 -91 44 -138 43 -172 -2 -25 3 -53 9 -61 7 -8 67 -42 133 -77 l122 -63
-6 -58 c-5 -47 -2 -70 18 -124 21 -54 24 -77 19 -117 -4 -27 -13 -52 -20 -55
-18 -7 -181 79 -262 138 -36 27 -70 49 -75 49 -4 0 -12 -12 -18 -27 -8 -21 -7
-35 5 -60 14 -29 21 -33 54 -33 28 0 55 -12 106 -45 71 -46 107 -60 204 -76
31 -4 90 -25 131 -44 95 -45 312 -183 456 -290 61 -44 128 -94 150 -110 43
-30 108 -104 204 -232 115 -152 269 -278 496 -405 101 -56 137 -71 167 -66 18
3 4 14 -67 51 -117 61 -144 88 -191 183 -34 69 -39 87 -38 149 0 51 6 83 23
120 106 233 157 312 230 360 27 19 70 31 154 45 183 31 293 93 317 178 12 44
5 53 -62 82 -40 17 -66 21 -122 19 -81 -4 -96 2 -96 36 0 31 32 48 147 79 l88
23 17 49 c21 61 24 183 4 209 -13 19 -15 18 -55 -8 -49 -32 -92 -43 -117 -29
-15 8 -12 13 27 37 24 15 64 41 88 57 41 27 45 28 62 12 10 -9 25 -36 33 -61
9 -25 27 -61 41 -79 14 -18 25 -37 25 -43 0 -5 4 -12 9 -16 25 -15 99 177 155
400 44 177 71 415 47 415 -5 0 -32 18 -59 39 -57 45 -109 62 -182 60 -57 -2
-57 2 -14 -101 13 -32 24 -69 24 -83 0 -23 -3 -25 -27 -19 -39 10 -60 21 -101
58 -21 18 -63 43 -95 56 -41 17 -59 30 -63 47 -6 24 18 73 36 73 18 0 11 20
-19 58 -57 71 -90 192 -67 246 12 29 20 36 43 36 39 0 49 -9 57 -55 4 -21 21
-65 38 -97 26 -50 34 -58 58 -58 16 0 51 -5 79 -12 44 -10 60 -9 106 6 30 9
57 22 61 28 4 6 -8 23 -27 39 -27 22 -32 30 -22 40 7 7 28 13 46 12 33 -1 34
0 43 51 8 46 11 51 33 48 34 -3 143 -59 164 -84 14 -17 17 -17 17 -4 0 53 -66
137 -127 163 -33 13 -33 14 -33 81 0 84 -16 118 -53 114 -34 -4 -82 21 -103
54 -10 14 -30 32 -45 40 -39 20 -185 19 -246 -3 -29 -10 -81 -16 -133 -17 -76
0 -95 4 -180 37 -107 43 -120 51 -102 69 8 8 69 14 185 18 187 7 176 4 327 90
22 13 53 20 85 20 27 0 69 9 92 19 l41 19 -4 64 c-3 34 -9 118 -16 185 -8 95
-8 126 1 137 7 8 45 27 84 42 91 34 117 46 117 54 0 8 -43 47 -164 150 l-76
64 47 49 48 48 -30 25 c-82 66 -321 168 -475 202 -114 25 -142 28 -430 47
-318 20 -526 25 -590 15z m850 -2015 c18 -22 4 -61 -33 -89 -60 -46 -238 -102
-287 -91 -27 6 -80 49 -80 65 0 12 74 47 114 54 21 4 84 23 140 42 114 38 129
40 146 19z m154 -161 c26 -25 19 -42 -23 -55 -74 -22 -114 33 -41 58 46 16 46
16 64 -3z m-294 -55 c0 -17 -66 -39 -120 -39 -28 0 -67 8 -88 17 l-37 18 115
5 c63 3 118 7 123 8 4 1 7 -3 7 -9z m647 -241 c33 -37 36 -58 10 -58 -31 0
-47 18 -47 52 0 34 10 35 37 6z"/>
<path d="M3630 2656 c0 -7 3 -27 6 -45 l6 -31 20 26 c19 24 19 26 3 44 -21 23
-35 26 -35 6z"/>
</g>
</svg>
